<mxfile host="app.diagrams.net" agent="Mozilla/5.0 (X11; Ubuntu; Linux x86_64; rv:131.0) Gecko/20100101 Firefox/131.0" version="24.7.17">
  <diagram name="Page-1" id="BdNJ3Nc9H3b_CYwPoDfR">
    <mxGraphModel dx="2125" dy="659" grid="1" gridSize="10" guides="1" tooltips="1" connect="1" arrows="1" fold="1" page="1" pageScale="1" pageWidth="850" pageHeight="1100" background="none" math="0" shadow="0">
      <root>
        <mxCell id="0" />
        <mxCell id="1" parent="0" />
        <mxCell id="GrZ51Owbv8XxVWswGiBt-2" value="تشکل" style="rounded=0;whiteSpace=wrap;html=1;strokeWidth=2;" vertex="1" parent="1">
          <mxGeometry x="200" y="260" width="120" height="60" as="geometry" />
        </mxCell>
        <mxCell id="GrZ51Owbv8XxVWswGiBt-3" value="دانشجو" style="rounded=0;whiteSpace=wrap;html=1;strokeWidth=2;" vertex="1" parent="1">
          <mxGeometry x="200" y="650" width="120" height="60" as="geometry" />
        </mxCell>
        <mxCell id="GrZ51Owbv8XxVWswGiBt-4" value="&lt;b&gt;&lt;u&gt;نام&lt;/u&gt;&lt;/b&gt;" style="ellipse;whiteSpace=wrap;html=1;strokeWidth=2;" vertex="1" parent="1">
          <mxGeometry x="405" y="200" width="110" height="60" as="geometry" />
        </mxCell>
        <mxCell id="GrZ51Owbv8XxVWswGiBt-5" value="سال تاسیس" style="ellipse;whiteSpace=wrap;html=1;strokeWidth=2;" vertex="1" parent="1">
          <mxGeometry x="405" y="270" width="110" height="60" as="geometry" />
        </mxCell>
        <mxCell id="GrZ51Owbv8XxVWswGiBt-6" value="اساسنامه" style="ellipse;whiteSpace=wrap;html=1;strokeWidth=2;" vertex="1" parent="1">
          <mxGeometry x="405" y="340" width="110" height="60" as="geometry" />
        </mxCell>
        <mxCell id="GrZ51Owbv8XxVWswGiBt-7" value="" style="endArrow=none;html=1;rounded=0;entryX=0;entryY=0.5;entryDx=0;entryDy=0;exitX=1;exitY=0.5;exitDx=0;exitDy=0;" edge="1" parent="1" source="GrZ51Owbv8XxVWswGiBt-2" target="GrZ51Owbv8XxVWswGiBt-4">
          <mxGeometry width="50" height="50" relative="1" as="geometry">
            <mxPoint x="295" y="430" as="sourcePoint" />
            <mxPoint x="345" y="380" as="targetPoint" />
          </mxGeometry>
        </mxCell>
        <mxCell id="GrZ51Owbv8XxVWswGiBt-9" value="" style="endArrow=none;html=1;rounded=0;entryX=0;entryY=0.5;entryDx=0;entryDy=0;exitX=1;exitY=0.5;exitDx=0;exitDy=0;" edge="1" parent="1" source="GrZ51Owbv8XxVWswGiBt-2" target="GrZ51Owbv8XxVWswGiBt-5">
          <mxGeometry width="50" height="50" relative="1" as="geometry">
            <mxPoint x="325" y="290" as="sourcePoint" />
            <mxPoint x="415" y="240" as="targetPoint" />
          </mxGeometry>
        </mxCell>
        <mxCell id="GrZ51Owbv8XxVWswGiBt-10" value="" style="endArrow=none;html=1;rounded=0;entryX=0;entryY=0.5;entryDx=0;entryDy=0;" edge="1" parent="1" target="GrZ51Owbv8XxVWswGiBt-6">
          <mxGeometry width="50" height="50" relative="1" as="geometry">
            <mxPoint x="325" y="290" as="sourcePoint" />
            <mxPoint x="425" y="250" as="targetPoint" />
          </mxGeometry>
        </mxCell>
        <mxCell id="GrZ51Owbv8XxVWswGiBt-12" value="دانشگاه" style="rounded=0;whiteSpace=wrap;html=1;" vertex="1" parent="1">
          <mxGeometry x="-160" y="320" width="120" height="60" as="geometry" />
        </mxCell>
        <mxCell id="GrZ51Owbv8XxVWswGiBt-14" value="&lt;div&gt;تشکیل شدن&lt;/div&gt;" style="rhombus;whiteSpace=wrap;html=1;" vertex="1" parent="1">
          <mxGeometry x="-10" y="250" width="120" height="80" as="geometry" />
        </mxCell>
        <mxCell id="GrZ51Owbv8XxVWswGiBt-15" value="&lt;font color=&quot;#ff8000&quot; style=&quot;font-size: 14px;&quot;&gt;۱&lt;/font&gt;" style="endArrow=none;html=1;rounded=0;exitX=1;exitY=0.5;exitDx=0;exitDy=0;entryX=0;entryY=0.5;entryDx=0;entryDy=0;" edge="1" parent="1" source="GrZ51Owbv8XxVWswGiBt-12" target="GrZ51Owbv8XxVWswGiBt-14">
          <mxGeometry width="50" height="50" relative="1" as="geometry">
            <mxPoint x="320" y="470" as="sourcePoint" />
            <mxPoint x="370" y="420" as="targetPoint" />
          </mxGeometry>
        </mxCell>
        <mxCell id="GrZ51Owbv8XxVWswGiBt-16" value="" style="shape=link;html=1;rounded=0;exitX=1;exitY=0.5;exitDx=0;exitDy=0;entryX=0;entryY=0.5;entryDx=0;entryDy=0;" edge="1" parent="1" source="GrZ51Owbv8XxVWswGiBt-14" target="GrZ51Owbv8XxVWswGiBt-2">
          <mxGeometry width="100" relative="1" as="geometry">
            <mxPoint x="290" y="450" as="sourcePoint" />
            <mxPoint x="370" y="440" as="targetPoint" />
          </mxGeometry>
        </mxCell>
        <mxCell id="GrZ51Owbv8XxVWswGiBt-21" value="n" style="edgeLabel;html=1;align=center;verticalAlign=middle;resizable=0;points=[];fontSize=12;fontColor=#FF8000;" vertex="1" connectable="0" parent="GrZ51Owbv8XxVWswGiBt-16">
          <mxGeometry x="-0.1079" y="2" relative="1" as="geometry">
            <mxPoint as="offset" />
          </mxGeometry>
        </mxCell>
        <mxCell id="GrZ51Owbv8XxVWswGiBt-17" value="" style="endArrow=none;html=1;rounded=0;exitX=1;exitY=0.5;exitDx=0;exitDy=0;entryX=0;entryY=0.5;entryDx=0;entryDy=0;" edge="1" parent="1" source="GrZ51Owbv8XxVWswGiBt-12" target="GrZ51Owbv8XxVWswGiBt-18">
          <mxGeometry width="50" height="50" relative="1" as="geometry">
            <mxPoint x="320" y="470" as="sourcePoint" />
            <mxPoint x="-10" y="440" as="targetPoint" />
          </mxGeometry>
        </mxCell>
        <mxCell id="GrZ51Owbv8XxVWswGiBt-20" value="۱" style="edgeLabel;html=1;align=center;verticalAlign=middle;resizable=0;points=[];fontSize=12;fontColor=#FF8000;" vertex="1" connectable="0" parent="GrZ51Owbv8XxVWswGiBt-17">
          <mxGeometry x="0.0079" y="1" relative="1" as="geometry">
            <mxPoint as="offset" />
          </mxGeometry>
        </mxCell>
        <mxCell id="GrZ51Owbv8XxVWswGiBt-18" value="عضویت " style="rhombus;whiteSpace=wrap;html=1;" vertex="1" parent="1">
          <mxGeometry x="10" y="640" width="120" height="80" as="geometry" />
        </mxCell>
        <mxCell id="GrZ51Owbv8XxVWswGiBt-19" value="" style="shape=link;html=1;rounded=0;entryX=0;entryY=0.5;entryDx=0;entryDy=0;exitX=1;exitY=0.5;exitDx=0;exitDy=0;" edge="1" parent="1" source="GrZ51Owbv8XxVWswGiBt-18" target="GrZ51Owbv8XxVWswGiBt-3">
          <mxGeometry width="100" relative="1" as="geometry">
            <mxPoint x="130" y="680" as="sourcePoint" />
            <mxPoint x="210" y="679.47" as="targetPoint" />
          </mxGeometry>
        </mxCell>
        <mxCell id="GrZ51Owbv8XxVWswGiBt-23" value="n" style="edgeLabel;html=1;align=center;verticalAlign=middle;resizable=0;points=[];fontSize=12;fontColor=#FF8000;" vertex="1" connectable="0" parent="GrZ51Owbv8XxVWswGiBt-19">
          <mxGeometry x="-0.1079" y="2" relative="1" as="geometry">
            <mxPoint as="offset" />
          </mxGeometry>
        </mxCell>
        <mxCell id="GrZ51Owbv8XxVWswGiBt-24" value="" style="rhombus;whiteSpace=wrap;html=1;rotation=-90;" vertex="1" parent="1">
          <mxGeometry x="210" y="360" width="100" height="80" as="geometry" />
        </mxCell>
        <mxCell id="GrZ51Owbv8XxVWswGiBt-25" value="" style="endArrow=none;html=1;rounded=0;entryX=0.5;entryY=1;entryDx=0;entryDy=0;exitX=1;exitY=0.5;exitDx=0;exitDy=0;" edge="1" parent="1" source="GrZ51Owbv8XxVWswGiBt-24" target="GrZ51Owbv8XxVWswGiBt-2">
          <mxGeometry width="50" height="50" relative="1" as="geometry">
            <mxPoint x="268" y="350" as="sourcePoint" />
            <mxPoint x="280" y="420" as="targetPoint" />
          </mxGeometry>
        </mxCell>
        <mxCell id="GrZ51Owbv8XxVWswGiBt-26" value="" style="endArrow=none;html=1;rounded=0;entryX=0;entryY=0.5;entryDx=0;entryDy=0;exitX=0.5;exitY=0;exitDx=0;exitDy=0;" edge="1" parent="1" source="GrZ51Owbv8XxVWswGiBt-3" target="GrZ51Owbv8XxVWswGiBt-24">
          <mxGeometry width="50" height="50" relative="1" as="geometry">
            <mxPoint x="230" y="470" as="sourcePoint" />
            <mxPoint x="190" y="410" as="targetPoint" />
          </mxGeometry>
        </mxCell>
      </root>
    </mxGraphModel>
  </diagram>
</mxfile>
